{"title":"Spy Game *2001* [BluRay][1080p][ENG, POL]","uid":5936708,"size":7932010390,"categoryP":"video","categoryS":"hd___movies","magnet":"?xt=urn:btih:34e116264e6d80c21a487cb31cd1ff0568e7039d&amp;dn=Spy+Game+%2A2001%2A+%5BBluRay%5D%5B1080p%5D%5BENG%2C+POL%5D&amp;tr=udp%3A%2F%2Ftracker.openbittorrent.com%3A80&amp;tr=udp%3A%2F%2Fopen.demonii.com%3A1337&amp;tr=udp%3A%2F%2Ftracker.coppersurfer.tk%3A6969&amp;tr=udp%3A%2F%2Fexodus.desync.com%3A6969","seeders":1,"leechers":0,"uploader":"albedo040","files":1,"time":1288990414,"description":"Spy Game *2001* [BluRay][1080p][ENG, POL]\n\nGeneral information:\nCountry: Germany, USA, Japan, France \nRelease: 19 November 2001\nGenre: Action, Crime, Thriller \nDirector: Tony Scott\nScreenplay: Michael Frost Beckner, David Arata\nOriginal Music: Harry Gregson-Williams\nCinematography by: Daniel Mindel\nDuration: 2h 6mn\nLanguage: English, Polish\nSubtitles: English, Polish\nRating: 7.7/10 - 13443 votes \n\nCast:\nRobert Redford  ...  Nathan D. Muir  \nBrad Pitt  ...  Tom Bishop  \nCatherine McCormack  ...  Elizabeth Hadley  \nStephen Dillane  ...  Charles Harker  \nLarry Bryggman  ...  Troy Folger  \nMarianne Jean-Baptiste  ...  Gladys Jennip  \nMatthew Marsh  ...  Dr. William Byars  \nTodd Boyce  ...  Robert Aiken  \nMichael Paul Chan  ...  Vincent Vy Ngo  \nGarrick Hagon  ...  CIA Director Cy Wilson  \nAndrew Grainger  ...  Andrew Unger  \nBill Buell  ...  Fred Kappler  \nColin Stinton  ...  Henry Pollard  \nTed Maynard  ...  CIA Administrator  \nTom Hodgkins  ...  CIA Lobby Guard  \n\nPlot:\nRetiring CIA agent Nathan Muir recalls his training of Tom Bishop while working against agency politics to free him from his Chinese captors. \n\nSpecifications:\nGeneral\nFormat                           : Matroska\nOverall bit rate                 : 8 351 Kbps\n\nVideo\nFormat                           : AVC\nFormat/Info                      : Advanced Video Codec\nFormat profile                   : &lt;a class=&quot;__cf_email__&quot; href=&quot;/cdn-cgi/l/email-protection&quot; data-cfemail=&quot;a9e1c0cec1e9e59d8799&quot;&gt;[email&amp;#160;protected]&lt;/a&gt;&lt;script cf-hash='f9e31' type=&quot;text/javascript&quot;&gt;\n/* &lt;![CDATA[ */!function(){try{var t=&quot;currentScript&quot;in document?document.currentScript:function(){for(var t=document.getElementsByTagName(&quot;script&quot;),e=t.length;e--;)if(t[e].getAttribute(&quot;cf-hash&quot;))return t[e]}();if(t&amp;&amp;t.previousSibling){var e,r,n,i,c=t.previousSibling,a=c.getAttribute(&quot;data-cfemail&quot;);if(a){for(e=&quot;&quot;,r=parseInt(a.substr(0,2),16),n=2;a.length-n;n+=2)i=parseInt(a.substr(n,2),16)^r,e+=String.fromCharCode(i);e=document.createTextNode(e),c.parentNode.replaceChild(e,c)}}}catch(u){}}();/* ]]&gt; */&lt;/script&gt;\nFormat settings, CABAC           : Yes\nFormat settings, ReFrames        : 3 frames\nMuxing mode                      : Container profile=&lt;a class=&quot;__cf_email__&quot; href=&quot;/cdn-cgi/l/email-protection&quot; data-cfemail=&quot;fbae959095948c95bbcfd5cb&quot;&gt;[email&amp;#160;protected]&lt;/a&gt;&lt;script cf-hash='f9e31' type=&quot;text/javascript&quot;&gt;\n/* &lt;![CDATA[ */!function(){try{var t=&quot;currentScript&quot;in document?document.currentScript:function(){for(var t=document.getElementsByTagName(&quot;script&quot;),e=t.length;e--;)if(t[e].getAttribute(&quot;cf-hash&quot;))return t[e]}();if(t&amp;&amp;t.previousSibling){var e,r,n,i,c=t.previousSibling,a=c.getAttribute(&quot;data-cfemail&quot;);if(a){for(e=&quot;&quot;,r=parseInt(a.substr(0,2),16),n=2;a.length-n;n+=2)i=parseInt(a.substr(n,2),16)^r,e+=String.fromCharCode(i);e=document.createTextNode(e),c.parentNode.replaceChild(e,c)}}}catch(u){}}();/* ]]&gt; */&lt;/script&gt;\nCodec ID                         : V_MPEG4/ISO/AVC\nBit rate                         : 7 272 Kbps\nWidth                            : 1 920 pixels\nHeight                           : 1 080 pixels\nDisplay aspect ratio             : 16:9\nFrame rate                       : 23.976 fps\n\nAudio 1\nFormat                           : AC-3\nFormat/Info                      : Audio Coding 3\nMode extension                   : CM (complete main)\nCodec ID                         : A_AC3\nBit rate mode                    : Constant\nBit rate                         : 640 Kbps\nChannel(s)                       : 6 channels\nChannel positions                : Front: L C R, Side: L R, LFE\nSampling rate                    : 48.0 KHz\nStream size                      : 580 MiB (8%)\nTitle                            : English\n\nAudio 2\nFormat                           : AC-3\nFormat/Info                      : Audio Coding 3\nMode extension                   : CM (complete main)\nCodec ID                         : A_AC3\nBit rate mode                    : Constant\nBit rate                         : 448 Kbps\nChannel(s)                       : 6 channels\nChannel positions                : Front: L C R, Side: L R, LFE\nSampling rate                    : 48.0 KHz\nStream size                      : 406 MiB (5%)\nTitle                            : Polish\nLanguage                         : Polish\n\nText 1\nFormat                           : UTF-8\nCodec ID                         : S_TEXT/UTF8\nCodec ID/Info                    : UTF-8 Plain Text\nTitle                            : English\n\nText 2\nFormat                           : UTF-8\nCodec ID                         : S_TEXT/UTF8\nCodec ID/Info                    : UTF-8 Plain Text\nTitle                            : Polish\nLanguage                         : Polish\n","torrent":{"xt":"urn:btih:34e116264e6d80c21a487cb31cd1ff0568e7039d","amp;dn":"Spy+Game+%2A2001%2A+%5BBluRay%5D%5B1080p%5D%5BENG%2C+POL%5D","amp;tr":["udp%3A%2F%2Ftracker.openbittorrent.com%3A80","udp%3A%2F%2Fopen.demonii.com%3A1337","udp%3A%2F%2Ftracker.coppersurfer.tk%3A6969","udp%3A%2F%2Fexodus.desync.com%3A6969"],"infoHash":"34e116264e6d80c21a487cb31cd1ff0568e7039d","infoHashBuffer":{"type":"Buffer","data":[52,225,22,38,78,109,128,194,26,72,124,179,28,209,255,5,104,231,3,157]},"announce":[],"urlList":[]}}